<mxfile host="app.diagrams.net" modified="2024-05-22T16:50:51.251Z" agent="Mozilla/5.0 (Macintosh; Intel Mac OS X 10_15_7) AppleWebKit/537.36 (KHTML, like Gecko) Chrome/124.0.0.0 Safari/537.36" etag="o8Gs6DJeMQnFBe-fq6IQ" version="24.4.6" type="github">
  <diagram id="C5RBs43oDa-KdzZeNtuy" name="Page-1">
    <mxGraphModel dx="1674" dy="914" grid="1" gridSize="10" guides="1" tooltips="1" connect="1" arrows="1" fold="1" page="1" pageScale="1" pageWidth="827" pageHeight="1169" math="0" shadow="0">
      <root>
        <mxCell id="WIyWlLk6GJQsqaUBKTNV-0" />
        <mxCell id="WIyWlLk6GJQsqaUBKTNV-1" parent="WIyWlLk6GJQsqaUBKTNV-0" />
        <mxCell id="HijYN62Fm5v3ZXcLR0Zq-0" value="&lt;font style=&quot;font-size: 24px;&quot; face=&quot;Courier New&quot;&gt;Stage 1&lt;/font&gt;" style="rounded=1;whiteSpace=wrap;html=1;" vertex="1" parent="WIyWlLk6GJQsqaUBKTNV-1">
          <mxGeometry x="40" y="40" width="120" height="40" as="geometry" />
        </mxCell>
        <mxCell id="HijYN62Fm5v3ZXcLR0Zq-1" value="&lt;font style=&quot;font-size: 24px;&quot; face=&quot;Courier New&quot;&gt;Stage 2&lt;/font&gt;" style="rounded=1;whiteSpace=wrap;html=1;" vertex="1" parent="WIyWlLk6GJQsqaUBKTNV-1">
          <mxGeometry x="280" y="40" width="120" height="40" as="geometry" />
        </mxCell>
        <mxCell id="HijYN62Fm5v3ZXcLR0Zq-2" value="&lt;font face=&quot;Georgia&quot; color=&quot;#ff8000&quot; style=&quot;font-size: 20px;&quot;&gt;&lt;i style=&quot;&quot;&gt;layers&lt;/i&gt; 1,2,3&lt;/font&gt;" style="rounded=1;whiteSpace=wrap;html=1;strokeColor=#000000;fillColor=none;" vertex="1" parent="WIyWlLk6GJQsqaUBKTNV-1">
          <mxGeometry y="120" width="200" height="40" as="geometry" />
        </mxCell>
        <mxCell id="HijYN62Fm5v3ZXcLR0Zq-7" value="&lt;font face=&quot;Georgia&quot; color=&quot;#ff8000&quot;&gt;&lt;span style=&quot;font-size: 20px;&quot;&gt;&lt;i&gt;patches 1,2,4,7,14,28&lt;/i&gt;&lt;/span&gt;&lt;/font&gt;" style="rounded=1;whiteSpace=wrap;html=1;strokeColor=#000000;fillColor=none;" vertex="1" parent="WIyWlLk6GJQsqaUBKTNV-1">
          <mxGeometry y="200" width="200" height="40" as="geometry" />
        </mxCell>
        <mxCell id="HijYN62Fm5v3ZXcLR0Zq-9" value="&lt;font color=&quot;#6929ff&quot; face=&quot;Georgia&quot; style=&quot;font-size: 20px;&quot;&gt;&lt;i style=&quot;&quot;&gt;layers&lt;/i&gt; 1&lt;/font&gt;" style="rounded=1;whiteSpace=wrap;html=1;strokeColor=#000000;fillColor=none;" vertex="1" parent="WIyWlLk6GJQsqaUBKTNV-1">
          <mxGeometry x="240" y="120" width="200" height="40" as="geometry" />
        </mxCell>
        <mxCell id="HijYN62Fm5v3ZXcLR0Zq-10" value="&lt;i style=&quot;color: rgb(105, 41, 255); font-family: Georgia; font-size: 20px;&quot;&gt;patches&lt;/i&gt;&lt;span style=&quot;color: rgb(105, 41, 255); font-family: Georgia; font-size: 20px;&quot;&gt;&amp;nbsp;14, 28&lt;/span&gt;" style="rounded=1;whiteSpace=wrap;html=1;strokeColor=#000000;fillColor=none;" vertex="1" parent="WIyWlLk6GJQsqaUBKTNV-1">
          <mxGeometry x="240" y="200" width="200" height="40" as="geometry" />
        </mxCell>
        <mxCell id="HijYN62Fm5v3ZXcLR0Zq-13" value="&lt;font color=&quot;#6929ff&quot; face=&quot;Georgia&quot; style=&quot;font-size: 20px;&quot;&gt;&lt;i style=&quot;&quot;&gt;layers&lt;/i&gt; 1&lt;/font&gt;" style="rounded=1;whiteSpace=wrap;html=1;strokeColor=#000000;fillColor=none;" vertex="1" parent="WIyWlLk6GJQsqaUBKTNV-1">
          <mxGeometry x="480" y="120" width="200" height="40" as="geometry" />
        </mxCell>
        <mxCell id="HijYN62Fm5v3ZXcLR0Zq-14" value="&lt;font color=&quot;#6929ff&quot; face=&quot;Georgia&quot; style=&quot;font-size: 20px;&quot;&gt;&lt;i style=&quot;&quot;&gt;layers&lt;/i&gt; 1&lt;/font&gt;" style="rounded=1;whiteSpace=wrap;html=1;strokeColor=#000000;fillColor=none;" vertex="1" parent="WIyWlLk6GJQsqaUBKTNV-1">
          <mxGeometry x="720" y="120" width="200" height="40" as="geometry" />
        </mxCell>
        <mxCell id="HijYN62Fm5v3ZXcLR0Zq-15" value="&lt;font style=&quot;font-size: 24px;&quot; face=&quot;Courier New&quot;&gt;Stage 3&lt;/font&gt;" style="rounded=1;whiteSpace=wrap;html=1;" vertex="1" parent="WIyWlLk6GJQsqaUBKTNV-1">
          <mxGeometry x="520" y="40" width="120" height="40" as="geometry" />
        </mxCell>
        <mxCell id="HijYN62Fm5v3ZXcLR0Zq-16" value="&lt;font style=&quot;font-size: 24px;&quot; face=&quot;Courier New&quot;&gt;Stage 4&lt;/font&gt;" style="rounded=1;whiteSpace=wrap;html=1;" vertex="1" parent="WIyWlLk6GJQsqaUBKTNV-1">
          <mxGeometry x="760" y="40" width="120" height="40" as="geometry" />
        </mxCell>
        <mxCell id="HijYN62Fm5v3ZXcLR0Zq-17" value="&lt;font style=&quot;font-size: 24px;&quot; face=&quot;Courier New&quot;&gt;Stage 5&lt;/font&gt;" style="rounded=1;whiteSpace=wrap;html=1;" vertex="1" parent="WIyWlLk6GJQsqaUBKTNV-1">
          <mxGeometry x="1000" y="40" width="120" height="40" as="geometry" />
        </mxCell>
        <mxCell id="HijYN62Fm5v3ZXcLR0Zq-18" value="&lt;font color=&quot;#6929ff&quot; face=&quot;Georgia&quot; style=&quot;font-size: 20px;&quot;&gt;&lt;i style=&quot;&quot;&gt;layers&lt;/i&gt; 1&lt;/font&gt;" style="rounded=1;whiteSpace=wrap;html=1;strokeColor=#000000;fillColor=none;" vertex="1" parent="WIyWlLk6GJQsqaUBKTNV-1">
          <mxGeometry x="960" y="120" width="200" height="40" as="geometry" />
        </mxCell>
        <mxCell id="HijYN62Fm5v3ZXcLR0Zq-19" value="&lt;i style=&quot;color: rgb(105, 41, 255); font-family: Georgia; font-size: 20px;&quot;&gt;patches&lt;/i&gt;&lt;span style=&quot;color: rgb(105, 41, 255); font-family: Georgia; font-size: 20px;&quot;&gt;&amp;nbsp;28&lt;/span&gt;" style="rounded=1;whiteSpace=wrap;html=1;strokeColor=#000000;fillColor=none;" vertex="1" parent="WIyWlLk6GJQsqaUBKTNV-1">
          <mxGeometry x="480" y="200" width="200" height="40" as="geometry" />
        </mxCell>
        <mxCell id="HijYN62Fm5v3ZXcLR0Zq-20" value="&lt;i style=&quot;color: rgb(105, 41, 255); font-family: Georgia; font-size: 20px;&quot;&gt;patches&lt;/i&gt;&lt;span style=&quot;color: rgb(105, 41, 255); font-family: Georgia; font-size: 20px;&quot;&gt;&amp;nbsp;28&lt;/span&gt;" style="rounded=1;whiteSpace=wrap;html=1;strokeColor=#000000;fillColor=none;" vertex="1" parent="WIyWlLk6GJQsqaUBKTNV-1">
          <mxGeometry x="720" y="200" width="200" height="40" as="geometry" />
        </mxCell>
        <mxCell id="HijYN62Fm5v3ZXcLR0Zq-21" value="&lt;i style=&quot;color: rgb(105, 41, 255); font-family: Georgia; font-size: 20px;&quot;&gt;patches&lt;/i&gt;&lt;span style=&quot;color: rgb(105, 41, 255); font-family: Georgia; font-size: 20px;&quot;&gt;&amp;nbsp;28&lt;/span&gt;" style="rounded=1;whiteSpace=wrap;html=1;strokeColor=#000000;fillColor=none;" vertex="1" parent="WIyWlLk6GJQsqaUBKTNV-1">
          <mxGeometry x="960" y="200" width="200" height="40" as="geometry" />
        </mxCell>
      </root>
    </mxGraphModel>
  </diagram>
</mxfile>
